<?xml version="1.0" encoding="UTF-8"?>
<svg version="1.1"
    xmlns="http://www.w3.org/2000/svg" width="171" height="60">
    <path d="M0 0 C56.43 0 112.86 0 171 0 C171 19.8 171 39.6 171 60 C114.57 60 58.14 60 0 60 C0 40.2 0 20.4 0 0 Z " fill="#020202" transform="translate(0,0)"/>
    <path d="M0 0 C7.00373149 3.30768963 10.99356925 8.55260899 14.48046875 15.27734375 C16.78527414 22.19175993 15.54087097 28.8190805 12.48046875 35.27734375 C8.72737972 41.45817355 3.29588682 45.04487636 -3.51953125 47.27734375 C-11.4854965 48.67508088 -17.92881998 46.86771633 -24.51953125 42.27734375 C-29.54641803 37.81253503 -32.93410694 32.4989035 -33.87109375 25.7421875 C-34.25171616 18.6205418 -32.7439237 13.06182358 -28.51953125 7.27734375 C-26.04370911 4.90937921 -23.46882701 3.01291342 -20.51953125 1.27734375 C-19.61654297 0.71660156 -19.61654297 0.71660156 -18.6953125 0.14453125 C-13.15400883 -2.06403143 -5.6637583 -1.62448882 0 0 Z " fill="#030602" transform="translate(37.51953125,7.72265625)"/>
    <path d="M0 0 C7.70478088 5.4543197 12.02989109 11.08967327 15 20 C16.11069939 29.92346176 13.01016086 38.47125137 6.84375 46.2421875 C0.38598651 52.39895354 -8.24734708 54.51440712 -16.921875 54.3984375 C-24.65396081 53.39758375 -31.17043181 49.5771691 -36.0625 43.5625 C-41.5170172 35.54036861 -43.22915413 28.6838966 -42 19 C-39.02130629 9.94133888 -32.99951428 3.9035054 -25 -1 C-17.03544845 -4.63599092 -7.7850448 -3.75583841 0 0 Z M-32.91015625 10.296875 C-37.60424219 17.08831849 -38.93738022 22.76829324 -38 31 C-35.28140576 39.53370388 -30.33838057 44.49708813 -22.75 48.875 C-15.69655831 50.99103251 -9.45193771 51.02428408 -2.6875 47.9375 C4.31458422 43.96965228 8.33569838 39.00996861 10.52734375 31.25390625 C12.06226032 23.93451069 10.79890379 18.45937388 7 12 C2.49136519 6.6608272 -2.90900757 2.420271 -10.00390625 1.69140625 C-19.64071032 1.34232334 -26.54374615 2.64155978 -32.91015625 10.296875 Z " fill="#7DD35B" transform="translate(42,5)"/>
    <path d="M0 0 C3.14847243 1.300456 4.61740061 2.5514352 6.8125 5.125 C8.48087822 9.16423148 8.69030273 12.69129724 8 17 C5.91501679 21.09550274 4.24022217 23.3008496 0 25 C-4.08320923 25.64010706 -8.20889732 25.93323987 -11.94921875 23.984375 C-14.59673859 21.85610239 -15.92143012 20.23570965 -17 17 C-17.50062692 12.15787073 -17.74256635 8.27297089 -15.25 4 C-10.48279123 -0.2375189 -6.20110244 -0.70996522 0 0 Z " fill="#6ACB55" transform="translate(33,18)"/>
    <path d="M0 0 C3.69186542 2.59216083 4.82883761 4.04149064 5.625 8.5 C5 12 5 12 3 14.9375 C-1.15080314 17.79117716 -3.0301078 17.7099846 -8 17 C-10.5 15.5 -10.5 15.5 -12 13 C-12.7099846 8.0301078 -12.79117716 6.15080314 -9.9375 2 C-6.22192774 -0.52975133 -4.4117517 -0.7878128 0 0 Z " fill="#020502" transform="translate(32,22)"/>
    <path d="M0 0 C2.38767481 2.38767481 3.40589817 4.79348467 4.8046875 7.83203125 C8.77466298 15.03247697 14.30281194 18.46836672 22 21 C26.99731291 21.64773281 31.98586344 21.36989532 37 21 C36.67 21.66 36.34 22.32 36 23 C24.12 23 12.24 23 0 23 C0 15.41 0 7.82 0 0 Z " fill="#010603" transform="translate(0,37)"/>
    <path d="M0 0 C6.00751857 3.12420164 10.73056202 4.40974518 17.4375 3.0625 C20.9719639 1.6914975 24.18657731 0.0028746 27.4375 -1.9375 C28.0975 -2.2675 28.7575 -2.5975 29.4375 -2.9375 C30.4275 -1.9475 31.4175 -0.9575 32.4375 0.0625 C23.92691601 6.19938369 16.12951837 9.68377337 5.4375 8.0625 C-0.55555523 5.85717024 -6.02114598 3.56595557 -9.5625 -1.9375 C-5.53098522 -3.60538436 -3.60080544 -2.11445433 0 0 Z " fill="#12B75B" transform="translate(16.5625,50.9375)"/>
    <path d="M0 0 C1.37478516 0.01740234 1.37478516 0.01740234 2.77734375 0.03515625 C3.69644531 0.04417969 4.61554688 0.05320312 5.5625 0.0625 C6.27277344 0.07410156 6.98304687 0.08570312 7.71484375 0.09765625 C7.76868896 2.38906911 7.80756462 4.68083813 7.83984375 6.97265625 C7.86304687 8.24882813 7.88625 9.525 7.91015625 10.83984375 C7.71484375 14.09765625 7.71484375 14.09765625 5.71484375 16.09765625 C2.08984375 16.22265625 2.08984375 16.22265625 -1.28515625 16.09765625 C-1.94515625 14.77765625 -2.60515625 13.45765625 -3.28515625 12.09765625 C-0.64515625 12.42765625 1.99484375 12.75765625 4.71484375 13.09765625 C4.71484375 12.10765625 4.71484375 11.11765625 4.71484375 10.09765625 C3.32265625 10.43796875 3.32265625 10.43796875 1.90234375 10.78515625 C-1.28515625 11.09765625 -1.28515625 11.09765625 -3.22265625 10.09765625 C-4.88945849 6.96014616 -4.03286437 4.46234278 -3.28515625 1.09765625 C-2.28515625 0.09765625 -2.28515625 0.09765625 0 0 Z " fill="#E7E7E7" transform="translate(115.28515625,25.90234375)"/>
    <path d="M0 0 C1.32 0 2.64 0 4 0 C4 4.95 4 9.9 4 15 C2.39125 15.04125 0.7825 15.0825 -0.875 15.125 C-1.77992187 15.14820313 -2.68484375 15.17140625 -3.6171875 15.1953125 C-6 15 -6 15 -8 13 C-8.25 9.5 -8.25 9.5 -8 6 C-6 4 -6 4 -3.375 3.875 C-2.59125 3.91625 -1.8075 3.9575 -1 4 C-0.67 2.68 -0.34 1.36 0 0 Z " fill="#DDDDDD" transform="translate(106,22)"/>
    <path d="M0 0 C2.79192205 -0.05380578 5.5828141 -0.09357669 8.375 -0.125 C9.1690625 -0.14175781 9.963125 -0.15851562 10.78125 -0.17578125 C12.85492015 -0.19335473 14.92883241 -0.10335168 17 0 C19 2 19 2 19.1953125 4.1640625 C19.17210937 4.97617187 19.14890625 5.78828125 19.125 6.625 C19.10695312 7.44226562 19.08890625 8.25953125 19.0703125 9.1015625 C19.04710937 9.72804688 19.02390625 10.35453125 19 11 C17.68 11 16.36 11 15 11 C15 8.36 15 5.72 15 3 C13.68 3 12.36 3 11 3 C11 5.64 11 8.28 11 11 C10.01 11 9.02 11 8 11 C7.67 8.69 7.34 6.38 7 4 C6.01 4 5.02 4 4 4 C3.67 6.31 3.34 8.62 3 11 C2.01 11 1.02 11 0 11 C0 7.37 0 3.74 0 0 Z " fill="#F6F6F6" transform="translate(148,26)"/>
    <path d="M0 0 C2.27864583 0.06510417 4.55729167 0.13020833 6.8359375 0.1953125 C6.8359375 3.8253125 6.8359375 7.4553125 6.8359375 11.1953125 C0 11.390625 0 11.390625 -2.1640625 11.1953125 C-4.1640625 9.1953125 -4.1640625 9.1953125 -4.4140625 5.6953125 C-4.14689263 1.9549343 -3.95834754 0.35725158 0 0 Z " fill="#F2F2F2" transform="translate(138.1640625,25.8046875)"/>
    <path d="M0 0 C0.94875 0.04125 1.8975 0.0825 2.875 0.125 C3.535 1.445 4.195 2.765 4.875 4.125 C1.905 3.63 1.905 3.63 -1.125 3.125 C-1.125 3.785 -1.125 4.445 -1.125 5.125 C0.855 5.785 2.835 6.445 4.875 7.125 C4.875 9.105 4.875 11.085 4.875 13.125 C2.16620665 14.47939668 -0.13433268 14.19001451 -3.125 14.125 C-3.785 12.805 -4.445 11.485 -5.125 10.125 C-2.815 10.455 -0.505 10.785 1.875 11.125 C1.875 10.465 1.875 9.805 1.875 9.125 C-0.105 8.465 -2.085 7.805 -4.125 7.125 C-4.75 4.75 -4.75 4.75 -5.125 2.125 C-3.125 0.125 -3.125 0.125 0 0 Z " fill="#EEEEEE" transform="translate(66.125,22.875)"/>
    <path d="M0 0 C3.5 0.25 3.5 0.25 5.5 2.25 C5.5 3.57 5.5 4.89 5.5 6.25 C3.19 6.25 0.88 6.25 -1.5 6.25 C-1.5 6.91 -1.5 7.57 -1.5 8.25 C1.965 7.755 1.965 7.755 5.5 7.25 C5.17 8.24 4.84 9.23 4.5 10.25 C-1.90096618 11.57850242 -1.90096618 11.57850242 -4.4375 10.1875 C-5.95334601 7.42331023 -5.82954432 5.34771665 -5.5 2.25 C-3.5 0.25 -3.5 0.25 0 0 Z " fill="#DCDCDC" transform="translate(78.5,25.75)"/>
    <path d="M0 0 C2 2 2 2 2 6 C-0.31 6 -2.62 6 -5 6 C-5 6.66 -5 7.32 -5 8 C-1.535 7.505 -1.535 7.505 2 7 C1.34 8.32 0.68 9.64 0 11 C-5.42857143 11.36190476 -5.42857143 11.36190476 -7.875 9.8125 C-9.40659584 7.34492892 -9.42822025 5.85480169 -9 3 C-6.73157826 -0.65467947 -4.03373275 -0.4291205 0 0 Z " fill="#EDEDED" transform="translate(94,26)"/>
    <path d="M0 0 C0.99 0 1.98 0 3 0 C3.05384521 2.29141286 3.09272087 4.58318188 3.125 6.875 C3.14820312 8.15117188 3.17140625 9.42734375 3.1953125 10.7421875 C3 14 3 14 1 16 C-2.625 16.125 -2.625 16.125 -6 16 C-6.66 14.68 -7.32 13.36 -8 12 C-5.36 12.33 -2.72 12.66 0 13 C0 12.01 0 11.02 0 10 C-0.99 9.67 -1.98 9.34 -3 9 C-2.34 8.34 -1.68 7.68 -1 7 C-0.59952556 4.67724823 -0.2602896 2.34260643 0 0 Z " fill="#F5F5F5" transform="translate(120,26)"/>
    <path d="M0 0 C0.78375 0.04125 1.5675 0.0825 2.375 0.125 C2.375 1.115 2.375 2.105 2.375 3.125 C1.385 3.455 0.395 3.785 -0.625 4.125 C-0.625 5.115 -0.625 6.105 -0.625 7.125 C1.85 8.115 1.85 8.115 4.375 9.125 C4.045 9.785 3.715 10.445 3.375 11.125 C0.5 11.25 0.5 11.25 -2.625 11.125 C-4.625 9.125 -4.625 9.125 -4.875 5.625 C-4.58138251 1.51435512 -4.25902123 0.20281053 0 0 Z " fill="#F1F1F1" transform="translate(102.625,25.875)"/>
    <path d="M0 0 C3.875 0.875 3.875 0.875 5 2 C5.07179964 3.51928038 5.08392007 5.04167482 5.0625 6.5625 C5.05347656 7.38878906 5.04445312 8.21507812 5.03515625 9.06640625 C5.01775391 10.02353516 5.01775391 10.02353516 5 11 C3.68 11 2.36 11 1 11 C0 3.375 0 3.375 0 0 Z " fill="#E4E4E4" transform="translate(162,26)"/>
    <path d="M0 0 C2.31 0 4.62 0 7 0 C7 0.99 7 1.98 7 3 C6.01 3.33 5.02 3.66 4 4 C3.67 6.31 3.34 8.62 3 11 C2.01 11 1.02 11 0 11 C0 7.37 0 3.74 0 0 Z " fill="#F7F7F7" transform="translate(126,26)"/>
    <path d="M0 0 C0.99 0 1.98 0 3 0 C3 3.63 3 7.26 3 11 C2.01 11 1.02 11 0 11 C-1.28571429 3.57142857 -1.28571429 3.57142857 0 0 Z " fill="#FBFBFB" transform="translate(142,26)"/>
    <path d="M0 0 C2.0625 0.4375 2.0625 0.4375 4 1 C3.67 2.65 3.34 4.3 3 6 C1.68 5.67 0.36 5.34 -1 5 C-1 1 -1 1 0 0 Z " fill="#89D057" transform="translate(40,15)"/>
    <path d="M0 0 C1.67542976 0.28604898 3.34385343 0.61781233 5 1 C5.33 2.65 5.66 4.3 6 6 C3.69 6 1.38 6 -1 6 C0.32 5.67 1.64 5.34 3 5 C2.04134491 2.66924071 2.04134491 2.66924071 -1 1 C-0.67 0.67 -0.34 0.34 0 0 Z " fill="#FBFBFB" transform="translate(90,26)"/>
    <path d="M0 0 C1.9375 0.8125 1.9375 0.8125 4 2 C4.33 2.99 4.66 3.98 5 5 C3.33388095 5.042721 1.66617115 5.04063832 0 5 C-0.33 4.67 -0.66 4.34 -1 4 C-1.66 5.32 -2.32 6.64 -3 8 C-3.36923077 3.44615385 -3.36923077 3.44615385 -1.5 1.1875 C-1.005 0.795625 -0.51 0.40375 0 0 Z " fill="#ABABAB" transform="translate(88,26)"/>
    <path d="M0 0 C1.65 0.33 3.3 0.66 5 1 C5.33 1.99 5.66 2.98 6 4 C3.03 3.505 3.03 3.505 0 3 C-0.33 3.66 -0.66 4.32 -1 5 C-0.67 3.35 -0.34 1.7 0 0 Z " fill="#E4E4E4" transform="translate(65,23)"/>
    <path d="M0 0 C2.475 0.495 2.475 0.495 5 1 C4.67 2.32 4.34 3.64 4 5 C2.68 4.67 1.36 4.34 0 4 C0 2.68 0 1.36 0 0 Z " fill="#191919" transform="translate(115,29)"/>
    <path d="M0 0 C1.98 0.495 1.98 0.495 4 1 C3.67 2.32 3.34 3.64 3 5 C1.68 4.67 0.36 4.34 -1 4 C-0.67 2.68 -0.34 1.36 0 0 Z " fill="#101010" transform="translate(138,29)"/>
    <path d="M0 0 C1.98 0.495 1.98 0.495 4 1 C3.67 2.32 3.34 3.64 3 5 C1.68 4.67 0.36 4.34 -1 4 C-0.67 2.68 -0.34 1.36 0 0 Z " fill="#111111" transform="translate(102,29)"/>
    <path d="M0 0 C0.66 0.33 1.32 0.66 2 1 C1.67 2.32 1.34 3.64 1 5 C-1.64 5 -4.28 5 -7 5 C-7 4.34 -7 3.68 -7 3 C-4.69 3 -2.38 3 0 3 C0 2.01 0 1.02 0 0 Z " fill="#434343" transform="translate(96,29)"/>
</svg>
